# xmcd
#
# Track frame offsets:
#	150
#	13862
#	27150
#	40246
#	53544
#	67055
#	80546
#	93809
#	107140
#	120399
#	134190
#	148152
#	160088
#	173449
#	186352
#	199040
#	212586
#	225965
#	239476
#	251378
#	263679
#	276930
#
# Disc length: 3867 seconds
# Revision: 0
# Processed by: cddbd v1.5.2PL0 Copyright (c) Steve Scherf et al.
# Submitted via: dBpowerAMP V12.0
#
DISCID=2f0f1916
DTITLE=Dusty Rankin - Early 78 RPM Records
DYEAR=1948
DGENRE=Comedy
TTITLE0=Silver Threads
TTITLE1=A Wasted Life
TTITLE2=Carefree Cowboy
TTITLE3=Sunset Trail
TTITLE4=The Lonesome Stockman
TTITLE5=Memories
TTITLE6=Tell Me Tonight That You Love Me
TTITLE7=Happy Singing Cowboy
TTITLE8=The Picture That Hangs On The Wall
TTITLE9=Currabubula
TTITLE10=Roll Along Silv'ry Moon
TTITLE11=Spring Time In The Valley
TTITLE12=Going Back To Wyoming
TTITLE13=Where The Murrumbidge Wends Its Way
TTITLE14=Wedding Bell Waltz
TTITLE15=Apple Cherry Mince And Chocolate Cream
TTITLE16=The Auburn Station Outlaw
TTITLE17=The Wanderer
TTITLE18=I'll Never Fall In Love Anymore
TTITLE19=Going Back To My Little Western Home
TTITLE20=My Little Old Log Cabin On The Plains
TTITLE21=Out On The Queensland Ranges
EXTD=
EXTT0=
EXTT1=
EXTT2=
EXTT3=
EXTT4=
EXTT5=
EXTT6=
EXTT7=
EXTT8=
EXTT9=
EXTT10=
EXTT11=
EXTT12=
EXTT13=
EXTT14=
EXTT15=
EXTT16=
EXTT17=
EXTT18=
EXTT19=
EXTT20=
EXTT21=
PLAYORDER=
